<?xml version="1.0" standalone="no"?>
<!DOCTYPE svg PUBLIC "-//W3C//DTD SVG 20010904//EN"
 "http://www.w3.org/TR/2001/REC-SVG-20010904/DTD/svg10.dtd">
<svg version="1.0" xmlns="http://www.w3.org/2000/svg"
 width="664.000000pt" height="664.000000pt" viewBox="0 0 664.000000 664.000000"
 preserveAspectRatio="xMidYMid meet">
<metadata>
Created by potrace 1.14, written by Peter Selinger 2001-2017
</metadata>
<g transform="translate(0.000000,664.000000) scale(0.100000,-0.100000)"
fill="#000000" stroke="none">
<path d="M5620 5299 c-58 -4 -260 -17 -450 -29 -190 -11 -419 -25 -510 -30
-91 -6 -509 -31 -930 -55 -421 -25 -841 -50 -935 -55 -744 -44 -1897 -112
-2065 -121 -113 -7 -214 -15 -225 -19 -18 -7 -31 -55 -103 -386 -45 -207 -80
-379 -77 -382 5 -6 98 -1 755 38 184 11 414 25 510 30 96 6 517 30 935 55 418
25 913 54 1100 65 187 11 489 29 670 40 553 33 1029 61 1250 73 l210 12 72
330 c40 182 79 356 86 388 l14 57 -101 -1 c-56 -1 -148 -5 -206 -10z m-82
-191 l-3 -93 -56 -3 -56 -3 -6 -191 c-4 -105 -8 -192 -9 -193 -2 -2 -47 -6
-101 -10 l-98 -7 1 193 2 194 -57 -3 -58 -3 6 68 c4 37 7 80 7 94 l0 26 168
10 c92 5 189 10 215 11 l48 2 -3 -92z m-555 28 c57 -28 81 -69 85 -146 4 -77
-16 -118 -74 -152 -35 -20 -35 -21 -16 -42 29 -32 122 -174 122 -186 0 -5 -17
-10 -38 -10 -22 0 -73 -3 -114 -6 l-76 -7 -43 89 -44 89 -3 -88 c-2 -58 -7
-89 -15 -92 -7 -2 -52 -6 -101 -8 l-89 -5 7 281 c3 155 10 285 14 289 8 8 153
16 267 13 54 -1 92 -7 118 -19z m-653 -16 c169 -47 243 -237 158 -406 -106
-213 -462 -233 -562 -33 -29 58 -35 150 -16 221 25 89 121 182 219 212 54 17
151 20 201 6z m-545 -57 c57 -29 85 -84 85 -162 0 -76 -16 -117 -63 -158 -42
-37 -91 -53 -164 -53 -29 0 -55 -5 -59 -12 -4 -6 -10 -46 -12 -89 l-4 -76 -95
-7 c-52 -4 -97 -6 -98 -4 -6 6 15 561 21 567 8 9 187 19 274 17 53 -2 87 -9
115 -23z m-557 -4 c28 -5 58 -16 67 -23 17 -12 16 -17 -10 -84 -16 -40 -30
-72 -32 -72 -2 0 -18 7 -34 16 -18 9 -49 14 -77 12 -39 -3 -47 -6 -47 -23 0
-15 10 -22 40 -29 99 -22 118 -29 148 -56 31 -27 32 -32 32 -103 0 -98 -29
-143 -122 -189 -56 -27 -76 -32 -142 -32 -73 0 -165 18 -185 35 -8 7 41 146
55 155 4 2 25 -5 46 -15 67 -36 147 -28 141 12 -2 18 -13 24 -63 33 -98 17
-139 46 -156 106 -15 57 9 133 58 179 80 77 171 102 281 78z m-413 -191 c-11
-345 -14 -391 -27 -400 -7 -4 -52 -8 -99 -8 l-86 0 -73 123 c-40 67 -79 130
-85 140 -10 14 -12 -11 -13 -125 -1 -78 -5 -145 -9 -149 -5 -4 -48 -9 -98 -10
l-90 -4 3 170 c1 94 5 223 8 288 l6 117 62 0 c33 0 77 3 96 6 l35 5 85 -150
c47 -83 87 -150 90 -151 3 0 3 70 2 154 l-4 155 64 4 c34 2 80 4 101 5 l37 2
-5 -172z m-705 -154 c51 -151 90 -277 88 -279 -1 -2 -50 -5 -107 -7 l-104 -3
-9 34 -9 34 -52 -7 c-29 -3 -64 -6 -79 -6 -23 0 -28 -5 -34 -35 -3 -19 -11
-35 -18 -36 -88 -8 -206 -13 -206 -9 0 3 45 129 100 280 56 151 103 280 105
287 4 11 49 17 177 21 l56 2 92 -276z m-633 213 c57 -30 78 -72 78 -154 0 -80
-16 -111 -70 -141 -16 -9 -32 -18 -34 -20 -3 -1 5 -12 16 -25 34 -37 103 -145
103 -160 0 -26 -24 -34 -118 -39 l-92 -6 -43 87 -42 86 -3 -87 c-3 -101 3 -96
-122 -100 l-85 -2 2 84 c2 47 6 176 9 287 l6 202 67 4 c148 9 295 2 328 -16z
m-447 -87 l0 -89 -57 -3 -58 -3 -6 -193 c-4 -106 -8 -194 -10 -196 -2 -2 -48
-6 -103 -8 l-99 -5 5 194 4 194 -55 -2 -56 -3 4 90 c2 49 4 90 5 91 3 3 272
20 349 22 l77 1 0 -90z"/>
<path d="M4790 4949 c0 -51 0 -51 27 -44 38 9 53 23 53 49 0 30 -18 46 -52 46
-27 0 -28 -2 -28 -51z"/>
<path d="M4158 4925 c-39 -22 -64 -92 -48 -139 32 -98 185 -76 204 29 8 41
-14 99 -42 114 -28 15 -82 13 -114 -4z"/>
<path d="M3587 4923 c-4 -3 -7 -26 -7 -50 0 -37 3 -43 21 -43 38 0 78 29 79
57 0 31 -71 59 -93 36z"/>
<path d="M1877 4715 c-10 -42 -17 -80 -17 -85 0 -10 62 -14 71 -5 6 6 -25 165
-32 165 -3 0 -13 -34 -22 -75z"/>
<path d="M1280 4740 c0 -27 2 -50 4 -50 1 0 17 5 35 11 58 20 50 89 -10 89
-28 0 -29 -2 -29 -50z"/>
<path d="M5530 4319 c-511 -31 -1138 -69 -1325 -79 -277 -16 -377 -35 -466
-91 -113 -71 -168 -188 -234 -504 -20 -93 -61 -285 -91 -425 -30 -140 -74
-347 -98 -460 -51 -237 -137 -634 -165 -765 -11 -49 -17 -93 -13 -96 7 -6 307
8 328 15 12 4 30 77 88 356 20 91 58 271 86 400 28 129 73 339 100 465 148
693 145 680 198 737 36 39 126 55 377 67 327 16 1105 59 1360 76 294 18 352 8
373 -67 8 -31 -1 -163 -14 -198 -5 -14 -49 -221 -145 -680 -23 -107 -50 -209
-60 -226 -11 -18 -34 -39 -53 -48 -37 -18 -244 -35 -701 -60 -684 -38 -738
-42 -733 -56 2 -5 129 -160 283 -345 l280 -337 160 7 c176 7 205 11 205 29 0
7 -53 78 -118 157 -65 79 -134 167 -155 196 l-38 52 43 5 c24 3 144 10 268 16
377 17 573 30 620 42 99 24 183 84 220 157 10 20 37 124 59 231 65 302 135
626 181 840 36 162 43 214 44 310 1 133 -13 172 -84 233 -86 73 -214 81 -780
46z"/>
<path d="M2840 4164 c-102 -7 -345 -22 -540 -34 -912 -53 -985 -58 -1069 -79
-137 -34 -211 -91 -270 -209 -38 -76 -69 -186 -126 -452 -80 -376 -142 -668
-198 -930 -93 -432 -149 -695 -150 -705 -2 -11 80 -10 241 1 71 4 94 10 101
22 8 15 50 206 257 1172 24 113 62 291 84 395 52 254 77 331 116 371 54 54 68
55 904 100 874 47 952 52 960 60 4 5 20 70 35 144 15 74 30 141 32 148 7 16
-123 15 -377 -4z"/>
<path d="M5580 3809 c-74 -5 -245 -15 -380 -24 -135 -8 -333 -20 -440 -25
-336 -18 -624 -40 -631 -48 -7 -7 -38 -145 -110 -482 -22 -107 -47 -222 -54
-255 -10 -45 -11 -63 -2 -73 15 -18 98 -15 787 28 85 6 305 19 489 30 184 11
336 21 337 23 5 5 34 132 54 237 9 52 30 149 45 215 41 182 75 348 75 368 0
10 -7 16 -17 16 -10 -1 -79 -6 -153 -10z m-210 -311 c0 -42 -55 -255 -68 -265
-9 -8 -44 -13 -81 -13 -36 0 -239 -11 -451 -25 -475 -31 -433 -30 -428 -2 3
12 15 72 28 132 12 61 25 113 29 117 3 4 92 12 196 18 105 7 312 20 460 30
149 9 280 18 293 19 12 0 22 -5 22 -11z"/>
<path d="M2900 3653 c-14 -2 -221 -14 -460 -28 -869 -50 -944 -55 -956 -68 -7
-6 -26 -77 -42 -157 -17 -80 -53 -251 -81 -380 -28 -129 -51 -242 -51 -251 0
-35 21 -36 245 -23 197 12 547 32 1115 64 288 17 254 1 284 130 14 61 26 120
26 131 0 24 43 25 -640 -16 -217 -13 -453 -27 -524 -31 l-129 -7 7 29 c4 15
16 73 28 128 11 56 25 106 31 112 7 7 92 16 202 22 909 54 1082 66 1090 73 2
3 16 59 30 124 14 66 28 128 31 138 5 15 -3 17 -88 16 -51 -1 -104 -4 -118 -6z"/>
<path d="M3922 2675 c-16 -14 -32 -35 -35 -47 -3 -13 -26 -120 -51 -238 -25
-118 -57 -267 -71 -330 -14 -63 -25 -119 -25 -123 0 -8 242 -1 307 9 27 4 33
10 39 39 3 18 15 41 25 51 18 17 21 15 62 -28 l42 -46 150 8 c83 5 171 9 198
9 31 1 47 5 47 14 0 6 -75 102 -165 212 -90 110 -206 254 -257 320 -132 170
-138 175 -191 175 -34 0 -53 -6 -75 -25z"/>
<path d="M2625 2594 c-1204 -73 -1368 -84 -1372 -87 -3 -4 -23 -91 -73 -327
-21 -102 -48 -227 -59 -277 -31 -138 -42 -126 107 -119 70 4 143 9 163 12 40
6 32 -18 95 272 13 63 31 126 39 142 17 33 32 37 175 45 442 23 1113 65 1118
69 8 9 62 269 57 277 -4 5 -14 8 -23 8 -9 -1 -111 -8 -227 -15z"/>
<path d="M4595 1745 c-5 -3 -210 -16 -455 -30 -393 -22 -594 -34 -860 -50 -41
-2 -356 -21 -700 -41 -344 -20 -626 -37 -628 -38 -1 -2 -6 -74 -11 -162 -26
-434 -33 -558 -45 -779 -8 -132 -13 -241 -12 -242 1 -1 78 4 171 10 l170 12 9
111 9 112 45 6 c25 3 79 6 120 6 l75 0 -5 -111 -6 -112 92 6 c50 4 186 12 303
18 l211 12 6 30 c3 16 6 65 6 108 0 43 4 80 9 83 5 4 36 9 69 12 l59 7 12 -64
c6 -35 14 -86 17 -113 l7 -49 141 7 c80 4 143 12 147 18 4 5 19 56 34 113 l27
103 36 6 c21 3 53 6 73 6 l36 0 -5 -114 -5 -114 59 4 c33 3 240 16 462 28 222
13 406 26 409 29 3 3 8 30 12 59 l6 53 24 -58 24 -59 51 6 c28 3 111 8 184 12
72 4 132 10 132 14 0 4 -49 118 -110 253 -60 135 -107 252 -104 260 3 8 27 33
54 56 65 55 91 122 98 252 6 119 -11 179 -66 231 -46 44 -80 62 -159 82 -54
14 -201 21 -228 11z m262 -127 c67 -34 88 -79 88 -188 0 -47 -6 -102 -14 -124
-19 -54 -73 -110 -130 -135 l-49 -21 101 -225 c55 -124 99 -227 96 -229 -2 -2
-35 -6 -72 -8 l-68 -3 -97 224 c-113 262 -105 264 -117 -35 -4 -100 -11 -187
-15 -194 -4 -6 -35 -14 -69 -17 l-61 -6 0 39 c0 59 40 778 48 864 l7 75 70 6
c129 12 231 4 282 -23z m-547 -20 c0 -13 -3 -39 -6 -59 l-6 -37 -128 -7 -127
-7 -7 -90 c-3 -50 -6 -116 -6 -145 l0 -55 48 6 c26 3 78 7 116 8 l70 3 -3 -55
c-1 -30 -4 -56 -6 -58 -1 -2 -36 -5 -76 -8 -41 -3 -93 -7 -116 -10 l-41 -5 -6
-72 c-3 -40 -8 -112 -12 -160 l-6 -88 132 7 131 7 -3 -59 c-3 -57 -4 -58 -37
-65 -18 -4 -107 -10 -197 -14 l-164 -7 0 36 c0 59 51 930 54 934 5 4 225 19
319 21 74 1 77 0 77 -21z m-570 -12 c0 -3 -38 -143 -85 -313 -47 -169 -102
-366 -121 -438 -20 -71 -43 -154 -51 -182 l-14 -53 -60 0 c-32 0 -59 4 -59 8
0 5 -36 219 -80 477 -43 258 -78 470 -77 471 1 1 30 4 65 7 58 5 64 4 71 -16
4 -12 27 -150 51 -307 24 -157 46 -288 49 -292 3 -4 43 136 89 310 45 174 88
320 95 324 12 8 127 11 127 4z m-706 -93 c-4 -32 -8 -60 -10 -61 -1 -2 -49 -6
-106 -8 -154 -7 -145 -3 -152 -76 -3 -35 -7 -98 -10 -142 l-5 -78 120 7 120 7
-3 -59 -3 -58 -117 -10 c-64 -5 -119 -12 -121 -15 -2 -3 -8 -76 -12 -162 l-7
-158 29 5 c15 2 74 7 131 10 l102 5 0 -42 c0 -89 12 -83 -203 -96 -105 -6
-194 -8 -197 -4 -7 7 44 959 51 966 4 4 252 21 357 24 l42 2 -6 -57z m-583
-34 c-2 -30 -5 -57 -7 -60 -2 -3 -61 -9 -131 -13 -70 -3 -129 -8 -131 -11 -6
-6 -20 -268 -15 -277 2 -4 31 -5 63 -3 33 3 87 7 120 10 l60 5 0 -59 0 -58
-37 -7 c-21 -3 -67 -6 -103 -7 -123 -2 -113 14 -127 -204 -6 -105 -12 -205
-12 -222 l-1 -33 -70 0 -70 0 5 58 c3 31 12 183 21 337 26 492 31 565 37 571
5 6 373 33 392 29 6 -1 8 -25 6 -56z"/>
<path d="M4627 1440 c-4 -51 -7 -122 -7 -157 l0 -64 48 7 c100 14 132 53 140
170 4 64 2 73 -20 99 -22 25 -34 29 -90 33 l-65 4 -6 -92z"/>
</g>
</svg>
